<svg width="29" height="29" viewBox="0 0 29 29" fill="none" xmlns="http://www.w3.org/2000/svg">
<path d="M10.1348 9.88901C10.1348 8.91015 10.8859 8.09872 11.8652 8.09872H17.4929C18.4722 8.09872 19.1678 8.91015 19.1678 9.88901V12.9457H20.2693V9.88901C20.2693 8.30252 19.0796 6.99715 17.4929 6.99715H11.8652C10.2785 6.99715 9.03323 8.30252 9.03323 9.88901V12.9457H10.1348V9.88901Z" fill="#976A4C"/>
<path d="M21.591 15.6308C21.591 15.8831 21.2944 16.03 21.0424 16.03H20.0776L19.9342 17.5938C19.8551 18.4489 19.1477 19.1144 18.2889 19.1144H10.7979C10.0273 19.1144 9.34825 18.604 9.18368 17.8512L8.87391 16.4707H8.43063C7.8935 16.4707 7.49077 16.1739 7.49077 15.9575V15.3437C7.49077 15.0915 7.72474 14.9285 7.97678 14.9285H9.98871L9.99465 17.8071L10.7464 17.4993C12.7869 16.6919 16.2364 16.6864 18.2779 17.494L19.0402 17.8141L19.0084 14.9285H21.0424C21.2944 14.9285 21.591 15.0915 21.591 15.3437V15.6308ZM21.0424 13.8269H17.895L17.9214 16.231C15.8839 15.6597 13.128 15.6711 11.0932 16.2444L11.0881 13.8269H7.97678C7.11733 13.8269 6.38919 14.4841 6.38919 15.3437V15.9575C6.38919 16.7256 7.04925 17.3301 7.96488 17.4804L8.10039 18.0668C8.33216 19.1279 9.18146 19.9406 10.2134 20.1669L9.06625 22.0504L10.0074 22.6159L11.4672 20.216H17.8778L19.3493 22.6362L20.2896 22.0665L19.095 20.1105C20.1417 19.7941 20.9249 18.8774 21.0311 17.7317L21.1274 17.1887C21.9688 17.168 22.6925 16.4773 22.6925 15.6308V15.3437C22.6925 14.4841 21.9018 13.8269 21.0424 13.8269Z" fill="#976A4C"/>
<path d="M13.4583 11.6207C14.2907 11.6207 14.2913 10.3605 13.4583 10.3605C12.626 10.3605 12.626 11.6207 13.4583 11.6207Z" fill="#976A4C"/>
<path d="M16.2149 11.6207C17.0473 11.6207 17.0473 10.3605 16.2149 10.3605C15.3824 10.3605 15.3817 11.6207 16.2149 11.6207Z" fill="#976A4C"/>
<path d="M14.8519 13.3858C15.6843 13.3858 15.6843 12.1256 14.8519 12.1256C14.0195 12.1256 14.0189 13.3858 14.8519 13.3858Z" fill="#976A4C"/>
</svg>