<svg width="29" height="29" viewBox="0 0 29 29" fill="none" xmlns="http://www.w3.org/2000/svg">
<g clip-path="url(#clip0)">
<path d="M15.124 17.2611V6.45218H20.8082V17.2611H15.124ZM8.84136 17.2611V6.45218H14.376V17.2611H8.84136ZM7.94385 5.70425V22.7957H8.69178V18.009H20.8082V22.7957H21.5561V5.70425H7.94385Z" fill="#976A4C"/>
<path d="M20.6975 9.59001H15.2879V10.1415H20.6975V9.59001Z" fill="#976A4C"/>
<path d="M20.6975 13.4129H15.2879V13.9644H20.6975V13.4129Z" fill="#976A4C"/>
<path d="M12.2818 16.0644H10.9355V16.8124H12.2818V16.0644Z" fill="#976A4C"/>
<path d="M15.4629 6.60775L15.4629 9.30029L16.2108 9.30029L16.2108 6.60775L15.4629 6.60775Z" fill="#976A4C"/>
<path d="M15.4629 10.4309L15.4629 13.1235L16.2108 13.1235L16.2108 10.4309L15.4629 10.4309Z" fill="#976A4C"/>
<path d="M17.856 6.60775L17.856 9.30029L18.6039 9.30029L18.6039 6.60775L17.856 6.60775Z" fill="#976A4C"/>
<path d="M17.7065 13.1235L20.399 13.1235L20.399 12.3755L17.7065 12.3755L17.7065 13.1235Z" fill="#976A4C"/>
<path d="M16.6596 6.60775L16.6596 9.30029L17.4075 9.30029L17.4075 6.60775L16.6596 6.60775Z" fill="#976A4C"/>
<path d="M16.6596 10.4309L16.6596 13.1235L17.4075 13.1235L17.4075 10.4309L16.6596 10.4309Z" fill="#976A4C"/>
<path d="M19.0527 6.60775L19.0527 9.30029L19.8007 9.30029L19.8007 6.60775L19.0527 6.60775Z" fill="#976A4C"/>
<path d="M17.7065 11.9268L20.399 11.9268L20.399 11.1788L17.7065 11.1788L17.7065 11.9268Z" fill="#976A4C"/>
</g>
<defs>
<clipPath id="clip0">
<rect width="28.5" height="28.5" fill="white" transform="translate(0.5)"/>
</clipPath>
</defs>
</svg>