<svg width="29" height="29" viewBox="0 0 29 29" fill="none" xmlns="http://www.w3.org/2000/svg">
<g clip-path="url(#clip0)">
<path d="M9.241 20.5881L10.4427 20.8931L10.7841 19.5478L9.58239 19.2431L9.241 20.5881Z" fill="#976A4C"/>
<path d="M17.7159 19.5483L18.0572 20.8933L19.2587 20.5884L18.9173 19.2431L17.7159 19.5483Z" fill="#976A4C"/>
<path d="M9.42333 11.5198L9.44465 12.4807H19.0648V11.5198H20.316L20.2682 13.7203H17.542L18.6438 18.088L17.4424 18.4187L16.2632 13.7203H12.2367L11.0576 18.3929L9.85596 18.1138L10.958 13.7203H8.23207L8.18398 11.5332L9.42333 11.5198Z" fill="#976A4C"/>
<path fill-rule="evenodd" clip-rule="evenodd" d="M9.20217 12.7287L9.18091 11.7703L8.43735 11.7784L8.4746 13.4724H11.2758L10.1578 17.9294L10.8768 18.0964L12.0436 13.4724H16.4566L17.6211 18.1124L18.344 17.9133L17.2238 13.4724H20.0256L20.0626 11.7677H19.3128V12.7287H9.20217ZM20.316 11.5198L20.2682 13.7203H17.542L18.6438 18.088L17.4424 18.4187L16.2632 13.7203H12.2367L11.0576 18.3929L9.85596 18.1138L10.958 13.7203H8.23207L8.18398 11.5332L9.42333 11.5198L9.44465 12.4807H19.0648V11.5198H20.316Z" fill="#976A4C"/>
<path d="M15.054 12.2442V10.1162H16.8332V12.2442H15.054Z" fill="#976A4C"/>
<path fill-rule="evenodd" clip-rule="evenodd" d="M17.2453 10.7834H16.8601V10.3426H17.6861V12.0179H16.8601V11.577H17.2453V10.7834Z" fill="#976A4C"/>
<path fill-rule="evenodd" clip-rule="evenodd" d="M15.7206 7.62694C15.8616 7.56978 16.0223 7.63776 16.0794 7.77878C16.1541 7.96305 16.138 8.13559 16.0731 8.28435C16.0146 8.41855 15.918 8.52873 15.8441 8.60908C15.8226 8.6324 15.8029 8.65352 15.7845 8.67312C15.7299 8.73136 15.6879 8.77625 15.6521 8.82571C15.6084 8.886 15.6019 8.91774 15.6019 8.93531C15.6019 9.14729 15.7329 9.30056 15.7791 9.33662C15.8991 9.43019 15.9205 9.60332 15.827 9.7233C15.7334 9.84329 15.5603 9.86471 15.4403 9.77114C15.2977 9.65992 15.0509 9.35957 15.0509 8.93531C15.0509 8.75406 15.1286 8.60906 15.2058 8.50251C15.2642 8.42186 15.339 8.34231 15.3979 8.27958C15.4126 8.26397 15.4263 8.2494 15.4385 8.23612C15.511 8.15722 15.5498 8.10586 15.5681 8.06401C15.58 8.03673 15.5821 8.01872 15.5687 7.98576C15.5116 7.84475 15.5796 7.68409 15.7206 7.62694Z" fill="#976A4C"/>
<path fill-rule="evenodd" clip-rule="evenodd" d="M16.562 9.94452C16.421 10.0017 16.2603 9.93369 16.2032 9.79268C16.1661 9.70111 16.1275 9.6217 16.0883 9.54123C16.0854 9.53521 16.0825 9.52918 16.0795 9.52313C16.0394 9.44055 15.9949 9.3481 15.9636 9.25271C15.9308 9.15296 15.9099 9.04296 15.9184 8.9195C15.9269 8.79661 15.9635 8.67581 16.0255 8.55181C16.0935 8.41571 16.259 8.36055 16.3951 8.4286C16.5312 8.49664 16.5863 8.66214 16.5183 8.79823C16.4819 8.87104 16.4706 8.92112 16.4681 8.9574C16.4656 8.99311 16.4706 9.03059 16.4871 9.08086C16.5051 9.13551 16.5331 9.19564 16.5752 9.28243C16.5783 9.28889 16.5815 9.29547 16.5848 9.30216C16.6232 9.38109 16.6694 9.47616 16.7138 9.58569C16.771 9.72671 16.703 9.88736 16.562 9.94452Z" fill="#976A4C"/>
</g>
<defs>
<clipPath id="clip0">
<rect width="28.5" height="28.5" fill="white"/>
</clipPath>
</defs>
</svg>