<svg width="29" height="29" viewBox="0 0 29 29" fill="none" xmlns="http://www.w3.org/2000/svg">
<g clip-path="url(#clip0)">
<path d="M11.0507 15.5362C9.07941 15.1471 7.33533 14.9718 5.43594 15.7885L5.74216 16.8466C7.5253 16.0799 9.20789 16.2648 10.9609 16.6376C11.0492 16.6583 12.0779 16.4507 12.1668 16.434C12.8336 16.2859 14.9666 16.1037 16.6521 16.8341L16.9605 15.8175C15.0175 14.9762 13.095 15.1262 11.0507 15.5362Z" fill="#976A4C"/>
<path d="M3.63255 12.0841C3.63255 11.2134 4.33227 10.4736 5.20296 10.4736H23.0269C23.8976 10.4736 24.5614 11.2134 24.5614 12.0841V13.6682H25.663V12.0841C25.663 10.6062 24.505 9.37201 23.0269 9.37201H5.20296C3.72486 9.37201 2.53098 10.6062 2.53098 12.0841V13.4478H3.63255V12.0841Z" fill="#976A4C"/>
<path d="M6.01366 19.8371H5.27658C3.94675 19.8371 2.83425 18.9558 2.5778 17.6339C1.81639 17.6339 0.988892 17.7564 0.988892 17.1882V14.8242C0.988892 14.5199 1.28392 14.3291 1.58795 14.3291H4.7346V15.4307H2.09081V16.5323H3.07325C3.37781 16.5323 3.62421 16.7788 3.62421 17.0831C3.62421 17.9943 4.36553 18.7354 5.27658 18.7354H23.0687C23.9803 18.7354 24.6767 18.0994 24.6767 17.1882V16.8945C24.6767 16.5903 24.9675 16.312 25.2721 16.312H26.439V15.4307H19.3098C19.1184 15.4307 18.9349 15.5067 18.7996 15.642C18.6642 15.7773 18.5881 15.9608 18.5881 16.1521V17.4135H17.5559V16.4108C17.5559 15.8587 17.7748 15.3292 18.1656 14.9389C18.5558 14.5485 19.0851 14.3291 19.6376 14.3291H27.0381C27.3427 14.3291 27.541 14.5199 27.541 14.8242V16.8945C27.541 17.1986 27.3427 17.4135 27.0381 17.4135H25.8109C25.6813 18.7354 24.5048 19.9155 23.0761 19.9194L23.0687 19.9205L24.6164 21.4773L23.8375 22.2431L21.5412 19.9205L19.9649 19.8371L17.7399 22.0887L16.9611 21.3361L18.4072 19.8371H7.57032L5.3781 22.0553L4.59924 21.3027L6.01366 19.8371Z" fill="#976A4C"/>
</g>
<defs>
<clipPath id="clip0">
<rect width="28.5" height="28.5" fill="white"/>
</clipPath>
</defs>
</svg>