<svg width="29" height="29" viewBox="0 0 29 29" fill="none" xmlns="http://www.w3.org/2000/svg">
<path d="M14.8896 15.6949C12.5098 15.3059 10.4042 15.1305 8.11119 15.9472L8.48088 17.0054C10.6336 16.2387 12.6649 16.4235 14.7813 16.7963C14.8879 16.817 16.1298 16.6095 16.2371 16.5927C17.0421 16.4447 19.6172 16.2625 21.652 16.9928L22.0243 15.9763C19.6786 15.1349 17.3576 15.2849 14.8896 15.6949Z" fill="#976A4C"/>
<path d="M6.53654 10.1498C6.53654 9.27908 7.23627 8.53926 8.10695 8.53926H21.746C22.6167 8.53926 23.2805 9.27908 23.2805 10.1498V13.8268H24.3821V10.1498C24.3821 8.67189 23.2241 7.43768 21.746 7.43768H8.10695C6.62886 7.43768 5.43497 8.67189 5.43497 10.1498V13.6065H6.53654V10.1498Z" fill="#976A4C"/>
<path d="M25.6422 14.4879H22.3994V15.5895H25.0432V16.4707H23.876C23.5717 16.4707 23.2807 16.749 23.2807 17.0532V17.3469C23.2807 18.2581 22.584 18.8942 21.6728 18.8942H8.18046C7.26923 18.8942 6.52809 18.1531 6.52809 17.2418C6.52809 16.9376 6.28156 16.691 5.9773 16.691H4.99448V15.5895H7.63826V14.4879H4.49194C4.18768 14.4879 3.8929 14.6787 3.8929 14.9829V17.3469C3.8929 17.9151 4.72018 17.7926 5.48181 17.7926C5.73782 19.1145 6.85063 19.9958 8.18046 19.9958H8.66647L7.2201 21.4948L7.99893 22.2474L10.2241 19.9958H20.2408L20.1819 20.1073L22.3668 22.3183L23.1456 21.5525L21.6803 20.0782C23.1088 20.0742 24.2851 18.8942 24.4149 17.5723H25.6422C25.9465 17.5723 26.1448 17.3573 26.1448 17.0532V14.9829C26.1448 14.6787 25.9465 14.4879 25.6422 14.4879Z" fill="#976A4C"/>
</svg>