<svg width="29" height="29" viewBox="0 0 29 29" fill="none" xmlns="http://www.w3.org/2000/svg">
<g clip-path="url(#clip0)">
<path d="M14.3896 15.6949C12.0098 15.3059 9.90424 15.1305 7.61119 15.9472L7.98088 17.0054C10.1336 16.2387 12.1649 16.4235 14.2813 16.7963C14.3879 16.817 15.6298 16.6095 15.7371 16.5927C16.5421 16.4447 19.1172 16.2625 21.152 16.9928L21.5243 15.9763C19.1786 15.1349 16.8576 15.2849 14.3896 15.6949Z" fill="#976A4C"/>
<path d="M7.60695 8.53925C6.73627 8.53925 6.03654 9.27907 6.03654 10.1498V13.6065H4.93497V10.1498C4.93497 8.67188 6.12885 7.43767 7.60695 7.43767H12.9293V8.53925H7.60695Z" fill="#976A4C"/>
<path d="M22.7805 10.1497C22.7805 9.27906 22.1167 8.53924 21.246 8.53924V7.43767C22.7241 7.43767 23.8821 8.67187 23.8821 10.1497V13.8268H22.7805V10.1497Z" fill="#976A4C"/>
<path d="M25.1422 14.4879H21.8994V15.5894H24.5432V16.4707H23.376C23.0717 16.4707 22.7807 16.749 22.7807 17.0532V17.3469C22.7807 18.2581 22.084 18.8942 21.1728 18.8942H7.68046C6.76923 18.8942 6.02809 18.153 6.02809 17.2418C6.02809 16.9376 5.78156 16.691 5.4773 16.691H4.49448V15.5894H7.13826V14.4879H3.99194C3.68768 14.4879 3.3929 14.6787 3.3929 14.9829V17.3469C3.3929 17.9151 4.22018 17.7926 4.98181 17.7926C5.23782 19.1145 6.35063 19.9958 7.68046 19.9958H8.16647L6.7201 21.4948L7.49893 22.2474L9.72411 19.9958H19.7408L19.6819 20.1072L21.8668 22.3183L22.6456 21.5525L21.1803 20.0782C22.6088 20.0742 23.7851 18.8942 23.9149 17.5723H25.1422C25.4465 17.5723 25.6448 17.3573 25.6448 17.0532V14.9829C25.6448 14.6787 25.4465 14.4879 25.1422 14.4879Z" fill="#976A4C"/>
<path d="M15.4185 9.53751V10.3025H14.136V11.57H13.401V10.3025H12.1185V9.53751H13.401V8.26251H14.136V9.53751H15.4185Z" fill="#976A4C"/>
<path d="M16.9164 10.8754V8.72315H14.8239V7.25242H16.9164V5.10013H18.5665V7.25242H20.659V8.72315H18.5665V10.8754H16.9164Z" fill="#976A4C"/>
</g>
<defs>
<clipPath id="clip0">
<rect width="28.5" height="28.5" fill="white"/>
</clipPath>
</defs>
</svg>