<svg width="29" height="29" viewBox="0 0 29 29" fill="none" xmlns="http://www.w3.org/2000/svg">
<path d="M16.1828 15.6949C13.803 15.3059 11.6974 15.1305 9.40439 15.9472L9.77407 17.0054C11.9268 16.2387 13.9581 16.4235 16.0744 16.7963C16.1811 16.817 17.423 16.6095 17.5303 16.5927C18.3353 16.4447 20.9104 16.2625 22.9452 16.9928L23.3175 15.9763C20.9718 15.1349 18.6508 15.2849 16.1828 15.6949Z" fill="#976A4C"/>
<path d="M24.5737 11.4964C24.5737 10.6258 23.9099 9.88594 23.0392 9.88594H20.5537V8.78436H23.0392C24.5173 8.78436 25.6753 10.0186 25.6753 11.4964V13.4994H24.5737V11.4964Z" fill="#976A4C"/>
<path d="M7.82973 13.4994H6.72815V12.0249H7.82973V13.4994Z" fill="#976A4C"/>
<path d="M26.9354 14.4879H23.6926V15.5894H26.3364V16.4707H25.1692C24.8649 16.4707 24.5739 16.749 24.5739 17.0532V17.3469C24.5739 18.2581 23.8772 18.8942 22.966 18.8942H9.47366C8.56243 18.8942 7.82129 18.153 7.82129 17.2418C7.82129 16.9376 7.57476 16.691 7.2705 16.691H6.28767V15.5894H8.93146V14.4879H5.78513C5.48088 14.4879 5.1861 14.6787 5.1861 14.9829V17.3469C5.1861 17.9151 6.01338 17.7926 6.77501 17.7926C7.03101 19.1145 8.14383 19.9958 9.47366 19.9958H9.95967L8.5133 21.4948L9.29212 22.2474L11.5173 19.9958H21.534L21.4751 20.1072L23.66 22.3183L24.4388 21.5525L22.9735 20.0782C24.402 20.0742 25.5783 18.8942 25.7081 17.5723H26.9354C27.2397 17.5723 27.438 17.3573 27.438 17.0532V14.9829C27.438 14.6787 27.2397 14.4879 26.9354 14.4879Z" fill="#976A4C"/>
<path d="M7.05778 8.65429V8.06976H8.93884V8.54442L8.31036 9.26081C8.55648 9.30183 8.74693 9.40584 8.88171 9.57285C9.01649 9.73693 9.08388 9.92739 9.08388 10.1442C9.08388 10.4665 8.974 10.72 8.75425 10.9045C8.53743 11.0862 8.25908 11.177 7.9192 11.177C7.57932 11.177 7.23504 11.0569 6.88637 10.8166L7.16765 10.2717C7.45772 10.4768 7.71703 10.5793 7.94557 10.5793C8.08328 10.5793 8.19609 10.5456 8.28399 10.4782C8.37482 10.4108 8.42023 10.3141 8.42023 10.1882C8.42023 10.0592 8.36896 9.95815 8.26641 9.8849C8.16386 9.80872 8.02175 9.77063 7.84009 9.77063C7.7434 9.77063 7.60715 9.79847 7.43135 9.85414V9.34871L8.02029 8.65429H7.05778ZM10.3049 10.6628V9.87172H9.53578V9.33113H10.3049V8.54002H10.9114V9.33113H11.6805V9.87172H10.9114V10.6628H10.3049ZM13.0473 9.7091C13.229 9.52451 13.3579 9.37801 13.4341 9.2696C13.5132 9.15826 13.5528 9.05131 13.5528 8.94876C13.5528 8.84621 13.5191 8.76124 13.4517 8.69385C13.3843 8.62353 13.2978 8.58837 13.1924 8.58837C12.999 8.58837 12.8159 8.72608 12.643 9.0015L12.0936 8.67627C12.2372 8.45359 12.3939 8.28511 12.5639 8.17084C12.7367 8.05657 12.955 7.99944 13.2187 7.99944C13.4854 7.99944 13.7183 8.08441 13.9175 8.25435C14.1197 8.42136 14.2208 8.6499 14.2208 8.93997C14.2208 9.09819 14.1798 9.25055 14.0977 9.39705C14.0186 9.54062 13.8707 9.72521 13.6538 9.95083L13.1001 10.5266H14.3131V11.1419H12.1464V10.6321L13.0473 9.7091ZM15.5326 10.6628V9.87172H14.7634V9.33113H15.5326V8.54002H16.1391V9.33113H16.9082V9.87172H16.1391V10.6628H15.5326ZM18.0069 8.77736L18.4112 9.41024L18.8288 8.77736H19.6023L18.7892 9.93325L19.6331 11.1419H18.8464L18.3849 10.4914L17.9366 11.1419H17.1762L18.0025 9.93764L17.2202 8.77736H18.0069Z" fill="#976A4C"/>
</svg>