<svg width="29" height="29" viewBox="0 0 29 29" fill="none" xmlns="http://www.w3.org/2000/svg">
<g clip-path="url(#clip0)">
<path d="M8.13527 21.0879L9.00324 21.308L9.35933 19.9045L8.49134 19.6843L8.13527 21.0879Z" fill="#976A4C"/>
<path d="M20.0087 19.6843L19.1407 19.9045L19.4968 21.308L20.3647 21.0879L20.0087 19.6843Z" fill="#976A4C"/>
<path d="M14.7784 11.1691L14.7796 9.55705H16.6345L17.0431 11.1691H14.7784ZM11.6156 11.1691L12.0239 9.55705H13.884L13.8828 11.1691H11.6156ZM10.5108 8.4032C10.5108 7.51409 11.214 6.87036 12.1029 6.87036H16.5557C17.4446 6.87036 18.2127 7.51409 18.2127 8.4032V8.66149H10.5108V8.4032ZM18.8847 18.9777L19.7527 18.7498L17.5586 9.55705H19.1082V8.4032C19.1082 7.02027 17.9385 5.97479 16.5557 5.97479H12.1029C10.7202 5.97479 9.61523 7.02027 9.61523 8.4032V9.55705H11.1001L8.7473 18.7498L9.61528 18.9644L11.3883 12.0646H13.8821L13.8805 19.2719L14.776 19.2663L14.7776 12.0646H17.2702L18.8847 18.9777Z" fill="#976A4C"/>
<path d="M13.879 21.7452L14.7746 21.7459L14.7757 20.2979L13.8801 20.2972L13.879 21.7452Z" fill="#976A4C"/>
</g>
<defs>
<clipPath id="clip0">
<rect width="28.5" height="28.5" fill="white"/>
</clipPath>
</defs>
</svg>