<svg width="29" height="29" viewBox="0 0 29 29" fill="none" xmlns="http://www.w3.org/2000/svg">
<g clip-path="url(#clip0)">
<path d="M15.2146 19.3556V17.3293H22.2146V19.3556H15.2146ZM7.4777 19.3556V17.3293H14.2935V19.3556H7.4777ZM6.37244 16.4083L6.37244 21.3486H7.29349V20.2767H22.2146V21.3486H23.1356V16.4083H6.37244Z" fill="#976A4C"/>
<path d="M19.4739 17.8847H18.0002V18.8057H19.4739V17.8847Z" fill="#976A4C"/>
<path d="M11.7204 17.8847H10.0625V18.8057H11.7204V17.8847Z" fill="#976A4C"/>
<path fill-rule="evenodd" clip-rule="evenodd" d="M7.9426 7.63862C7.9426 7.38518 8.14805 7.17973 8.40149 7.17973H20.975C21.2284 7.17973 21.4339 7.38518 21.4339 7.63862V15.1116H20.5161V8.09751H8.86038V14.6527H19.7888V15.5704H8.40149C8.14805 15.5704 7.9426 15.365 7.9426 15.1116V7.63862Z" fill="#976A4C"/>
<path fill-rule="evenodd" clip-rule="evenodd" d="M13.2362 8.86984C13.3258 8.95945 13.3258 9.10472 13.2362 9.19433L9.71461 12.716C9.62501 12.8056 9.47974 12.8056 9.39013 12.716C9.30053 12.6264 9.30053 12.4811 9.39013 12.3915L12.9118 8.86985C13.0014 8.78024 13.1466 8.78024 13.2362 8.86984Z" fill="#976A4C"/>
<path fill-rule="evenodd" clip-rule="evenodd" d="M15.8076 8.6415C15.8972 8.7311 15.8972 8.87638 15.8076 8.96598L10.6649 14.1087C10.5753 14.1983 10.43 14.1983 10.3404 14.1087C10.2508 14.0191 10.2508 13.8738 10.3404 13.7842L15.4831 8.6415C15.5727 8.55189 15.718 8.55189 15.8076 8.6415Z" fill="#976A4C"/>
</g>
<defs>
<clipPath id="clip0">
<rect width="28.5" height="28.5" fill="white" transform="translate(0.5)"/>
</clipPath>
</defs>
</svg>