<svg width="155" height="155" viewBox="0 0 155 155" fill="none" xmlns="http://www.w3.org/2000/svg">
<path d="M75.5151 25.1789C81.4128 25.1789 86.1936 29.9597 86.1936 35.8573C86.1936 41.755 81.4128 46.5358 75.5151 46.5358C69.6174 46.5358 64.8366 41.755 64.8366 35.8573C64.8366 29.9597 69.6174 25.1789 75.5151 25.1789ZM79.412 61.8588H71.6053L71.6175 61.4975C72.2612 61.4975 72.7731 61.443 73.1523 61.3355C73.5323 61.2287 73.8125 61.0545 73.9953 60.8129C74.1782 60.5713 74.2964 60.2695 74.3495 59.9075C74.4025 59.5455 74.4384 59.096 74.457 58.5591L74.6972 51.68C74.7215 50.9832 74.6728 50.4463 74.5524 50.0707C74.4305 49.695 74.2326 49.4197 73.9574 49.2455C73.6814 49.0713 73.343 48.9703 72.9416 48.943C72.5401 48.9172 72.5975 48.9036 72.034 48.9036L72.0483 48.5007H74.4463C75.2513 48.5007 75.8492 48.662 76.2399 48.9839C76.6313 49.3058 76.9058 49.6814 77.0664 50.1101C77.2248 50.5402 77.3037 50.9632 77.303 51.3775C77.3015 51.7947 77.298 52.0958 77.2915 52.2836L77.0693 58.6401C77.0521 59.1498 77.0435 59.5856 77.0442 59.9469C77.0449 60.3104 77.1087 60.605 77.2349 60.833C77.361 61.0609 77.5962 61.2287 77.9417 61.3355C78.2858 61.443 78.7804 61.4975 79.4249 61.4975L79.412 61.8588ZM52.6205 61.9778L75.2907 75.0671C75.4291 75.1474 75.6004 75.1474 75.7395 75.0671L98.4097 61.9778C98.5488 61.8982 98.6341 61.7498 98.6341 61.5893V35.4115C98.6341 35.2516 98.5488 35.1032 98.4097 35.0229L75.7395 21.9344C75.6004 21.8541 75.4291 21.8541 75.2907 21.9344L52.6205 35.0229C52.4814 35.1032 52.3961 35.2516 52.3961 35.4115V61.5893C52.3961 61.7498 52.4814 61.8982 52.6205 61.9778Z" fill="#976A4C"/>
<path d="M21.4716 131.651C21.653 131.651 21.8092 131.63 21.9404 131.588C22.0709 131.547 22.1791 131.488 22.263 131.413C22.3476 131.337 22.4092 131.248 22.4487 131.144C22.4874 131.04 22.5075 130.926 22.5075 130.801C22.5075 130.559 22.4214 130.367 22.2479 130.226C22.0759 130.085 21.8164 130.014 21.4716 130.014H20.4551V131.651H21.4716ZM20.4551 127.958V129.562H21.2945C21.4737 129.562 21.6293 129.542 21.7612 129.503C21.8938 129.464 22.0028 129.409 22.0895 129.339C22.1755 129.269 22.2393 129.184 22.2809 129.084C22.3225 128.985 22.344 128.876 22.344 128.758C22.344 128.481 22.2609 128.278 22.0945 128.15C21.9282 128.022 21.6702 127.958 21.3203 127.958H20.4551ZM21.3203 127.456C21.6092 127.456 21.858 127.485 22.0666 127.542C22.2752 127.598 22.4465 127.679 22.5813 127.784C22.7161 127.889 22.815 128.018 22.8781 128.17C22.9412 128.322 22.9734 128.493 22.9734 128.683C22.9734 128.798 22.9548 128.909 22.9189 129.016C22.8831 129.122 22.8293 129.221 22.7569 129.312C22.6845 129.404 22.5935 129.486 22.4831 129.56C22.3727 129.633 22.2429 129.693 22.0945 129.739C22.4401 129.804 22.6996 129.927 22.8731 130.108C23.0473 130.288 23.134 130.525 23.134 130.818C23.134 131.017 23.0974 131.198 23.0243 131.362C22.9505 131.526 22.8437 131.667 22.7024 131.785C22.5619 131.903 22.3885 131.994 22.1827 132.059C21.9777 132.123 21.7433 132.156 21.4809 132.156H19.8221V127.456H21.3203Z" fill="#976A4C"/>
<path d="M30.3772 129.813C30.3772 129.524 30.3378 129.265 30.2589 129.036C30.1801 128.806 30.069 128.612 29.9249 128.454C29.7801 128.295 29.6051 128.173 29.4001 128.088C29.1944 128.003 28.9643 127.96 28.7112 127.96C28.4596 127.96 28.2309 128.003 28.0259 128.088C27.8201 128.173 27.6445 128.295 27.499 128.454C27.3542 128.612 27.2416 128.806 27.1635 129.036C27.0846 129.265 27.0452 129.524 27.0452 129.813C27.0452 130.101 27.0846 130.36 27.1635 130.588C27.2416 130.816 27.3542 131.01 27.499 131.169C27.6445 131.327 27.8201 131.449 28.0259 131.532C28.2309 131.617 28.4596 131.659 28.7112 131.659C28.9643 131.659 29.1944 131.617 29.4001 131.532C29.6051 131.449 29.7801 131.327 29.9249 131.169C30.069 131.01 30.1801 130.816 30.2589 130.588C30.3378 130.36 30.3772 130.101 30.3772 129.813ZM31.0296 129.813C31.0296 130.165 30.9737 130.487 30.8625 130.782C30.7507 131.076 30.593 131.329 30.3901 131.541C30.1865 131.753 29.9428 131.917 29.6575 132.034C29.3722 132.151 29.0567 132.21 28.7112 132.21C28.3657 132.21 28.051 132.151 27.7664 132.034C27.4825 131.917 27.2387 131.753 27.0351 131.541C26.8323 131.329 26.6746 131.076 26.5634 130.782C26.4516 130.487 26.3957 130.165 26.3957 129.813C26.3957 129.461 26.4516 129.137 26.5634 128.844C26.6746 128.55 26.8323 128.296 27.0351 128.083C27.2387 127.87 27.4825 127.704 27.7664 127.586C28.051 127.468 28.3657 127.409 28.7112 127.409C29.0567 127.409 29.3722 127.468 29.6575 127.586C29.9428 127.704 30.1865 127.87 30.3901 128.083C30.593 128.296 30.7507 128.55 30.8625 128.844C30.9737 129.137 31.0296 129.461 31.0296 129.813Z" fill="#976A4C"/>
<path d="M36.3749 131.656C36.5692 131.656 36.7433 131.623 36.896 131.558C37.0487 131.492 37.1785 131.4 37.2853 131.283C37.3907 131.164 37.4717 131.023 37.5276 130.859C37.5835 130.695 37.6115 130.515 37.6115 130.318V127.462H38.2437V130.318C38.2437 130.589 38.2007 130.84 38.1147 131.073C38.028 131.304 37.9047 131.505 37.7441 131.674C37.5835 131.843 37.3871 131.977 37.1555 132.073C36.924 132.169 36.6631 132.217 36.3749 132.217C36.086 132.217 35.8258 132.169 35.5942 132.073C35.3627 131.977 35.1655 131.843 35.0042 131.674C34.8422 131.505 34.7182 131.304 34.6322 131.073C34.5455 130.84 34.5024 130.589 34.5024 130.318V127.462H35.1354V130.315C35.1354 130.511 35.1634 130.692 35.2186 130.856C35.2745 131.019 35.3555 131.161 35.4616 131.279C35.5677 131.397 35.6974 131.49 35.8523 131.556C36.0057 131.623 36.1806 131.656 36.3749 131.656Z" fill="#976A4C"/>
<path d="M45.1758 127.996H43.6539V132.161H43.0209V127.996H41.4961V127.462H45.1758V127.996Z" fill="#976A4C"/>
<path d="M48.5043 127.462H49.1408V132.161H48.5043V127.462Z" fill="#976A4C"/>
<path d="M53.3186 129.807C53.3186 130.096 53.358 130.354 53.4369 130.583C53.515 130.811 53.6276 131.005 53.7724 131.164C53.9179 131.321 54.0935 131.443 54.2993 131.527C54.5043 131.612 54.733 131.653 54.9846 131.653C55.2377 131.653 55.4678 131.612 55.6728 131.527C55.8785 131.443 56.0534 131.321 56.1975 131.164C56.3416 131.005 56.4535 130.811 56.5323 130.583C56.6112 130.354 56.6499 130.096 56.6499 129.807C56.6499 129.519 56.6112 129.26 56.5323 129.03C56.4535 128.801 56.3416 128.607 56.1975 128.448C56.0534 128.29 55.8785 128.168 55.6728 128.083C55.4678 127.997 55.2377 127.954 54.9846 127.954C54.733 127.954 54.5043 127.997 54.2993 128.083C54.0935 128.168 53.9179 128.29 53.7724 128.448C53.6276 128.607 53.515 128.801 53.4369 129.03C53.358 129.26 53.3186 129.519 53.3186 129.807ZM57.5194 133.126H56.9947C56.9158 133.126 56.8456 133.115 56.7846 133.093C56.7237 133.071 56.6678 133.033 56.6176 132.978L55.7947 132.08C55.5452 132.163 55.2749 132.205 54.9846 132.205C54.6391 132.205 54.3237 132.146 54.0398 132.029C53.7552 131.912 53.5122 131.748 53.3086 131.536C53.1057 131.324 52.948 131.071 52.8362 130.777C52.725 130.482 52.6691 130.159 52.6691 129.807C52.6691 129.455 52.725 129.132 52.8362 128.838C52.948 128.544 53.1057 128.291 53.3086 128.078C53.5122 127.865 53.7552 127.699 54.0398 127.581C54.3237 127.463 54.6391 127.404 54.9846 127.404C55.3294 127.404 55.6455 127.463 55.9309 127.581C56.2162 127.699 56.4599 127.865 56.6635 128.078C56.8664 128.291 57.0241 128.544 57.1359 128.838C57.247 129.132 57.3029 129.455 57.3029 129.807C57.3029 130.028 57.28 130.238 57.2356 130.437C57.1904 130.636 57.1259 130.821 57.0406 130.993C56.9553 131.165 56.8513 131.32 56.7287 131.46C56.6061 131.6 56.4685 131.722 56.3158 131.824L57.5194 133.126Z" fill="#976A4C"/>
<path d="M62.6484 131.656C62.8426 131.656 63.0168 131.623 63.1702 131.558C63.3222 131.492 63.4527 131.4 63.5588 131.283C63.6642 131.164 63.7452 131.023 63.8011 130.859C63.857 130.695 63.885 130.515 63.885 130.318V127.462H64.5172V130.318C64.5172 130.589 64.4742 130.84 64.3882 131.073C64.3015 131.304 64.1782 131.505 64.0176 131.674C63.857 131.843 63.6606 131.977 63.429 132.073C63.1975 132.169 62.9365 132.217 62.6484 132.217C62.3595 132.217 62.0992 132.169 61.8677 132.073C61.6361 131.977 61.439 131.843 61.2777 131.674C61.1157 131.505 60.9917 131.304 60.9056 131.073C60.8189 130.84 60.7759 130.589 60.7759 130.318V127.462H61.4089V130.315C61.4089 130.511 61.4368 130.692 61.492 130.856C61.548 131.019 61.629 131.161 61.7351 131.279C61.8412 131.397 61.9716 131.49 62.1258 131.556C62.2792 131.623 62.4541 131.656 62.6484 131.656Z" fill="#976A4C"/>
<path d="M71.1726 131.642L71.169 132.161H68.2736V127.462H71.169V127.98H68.9095V129.541H70.7396V130.039H68.9095V131.642H71.1726Z" fill="#976A4C"/>
<path d="M79.6212 127.98V129.623H81.5523V130.141H79.6212V132.161H78.9846V127.462H81.8807V127.98H79.6212Z" fill="#976A4C"/>
<path d="M87.1366 131.656C87.3309 131.656 87.5051 131.623 87.6585 131.558C87.8112 131.492 87.941 131.4 88.047 131.283C88.1524 131.164 88.2334 131.023 88.2893 130.859C88.3453 130.695 88.3732 130.515 88.3732 130.318V127.462H89.0062V130.318C89.0062 130.589 88.9625 130.84 88.8765 131.073C88.7897 131.304 88.6664 131.505 88.5058 131.674C88.3453 131.843 88.1488 131.977 87.9173 132.073C87.6857 132.169 87.4248 132.217 87.1366 132.217C86.8485 132.217 86.5882 132.169 86.3567 132.073C86.1244 131.977 85.928 131.843 85.766 131.674C85.604 131.505 85.48 131.304 85.3939 131.073C85.3072 130.84 85.2642 130.589 85.2642 130.318V127.462H85.8972V130.315C85.8972 130.511 85.9251 130.692 85.9811 130.856C86.0363 131.019 86.1173 131.161 86.2234 131.279C86.3294 131.397 86.4599 131.49 86.614 131.556C86.7674 131.623 86.9424 131.656 87.1366 131.656Z" fill="#976A4C"/>
<path d="M94.0638 129.737C94.2473 129.737 94.4093 129.715 94.5505 129.67C94.6918 129.625 94.81 129.561 94.9047 129.48C95 129.397 95.0717 129.3 95.1197 129.186C95.1678 129.072 95.1921 128.947 95.1921 128.809C95.1921 128.529 95.0997 128.318 94.9161 128.176C94.7326 128.034 94.4573 127.963 94.0903 127.963H93.3949V129.737H94.0638ZM96.2345 132.161H95.671C95.5549 132.161 95.4696 132.115 95.4151 132.026L94.195 130.347C94.1577 130.295 94.1182 130.257 94.0752 130.234C94.0329 130.211 93.9663 130.199 93.8767 130.199H93.3949V132.161H92.7619V127.462H94.0903C94.3871 127.462 94.6444 127.492 94.8609 127.551C95.0774 127.611 95.2559 127.699 95.3972 127.812C95.5384 127.926 95.6423 128.063 95.7097 128.224C95.7778 128.384 95.8115 128.564 95.8115 128.763C95.8115 128.93 95.7857 129.085 95.7334 129.229C95.6803 129.373 95.6043 129.503 95.5054 129.617C95.4058 129.732 95.2846 129.83 95.1412 129.911C94.9979 129.991 94.8358 130.053 94.6545 130.095C94.7355 130.14 94.805 130.207 94.8638 130.295L96.2345 132.161Z" fill="#976A4C"/>
<path d="M103.311 127.456V132.155H102.993C102.942 132.155 102.9 132.147 102.866 132.13C102.833 132.112 102.8 132.082 102.767 132.041L100.048 128.499C100.053 128.554 100.056 128.607 100.058 128.66C100.06 128.712 100.061 128.761 100.061 128.807V132.155H99.5035V127.456H99.8311C99.8598 127.456 99.8842 127.458 99.9035 127.461C99.9229 127.464 99.9408 127.47 99.9559 127.477C99.9717 127.485 99.9867 127.496 100.002 127.51C100.018 127.524 100.034 127.542 100.051 127.565L102.77 131.102C102.765 131.046 102.762 130.99 102.758 130.937C102.755 130.884 102.753 130.833 102.753 130.785V127.456H103.311Z" fill="#976A4C"/>
<path d="M107.121 127.462H107.757V132.161H107.121V127.462Z" fill="#976A4C"/>
<path d="M114.776 127.996H113.254V132.161H112.621V127.996H111.097V127.462H114.776V127.996Z" fill="#976A4C"/>
<path d="M119.9 131.656C120.095 131.656 120.268 131.623 120.422 131.558C120.574 131.492 120.704 131.4 120.81 131.283C120.915 131.164 120.997 131.023 121.052 130.859C121.108 130.695 121.136 130.515 121.136 130.318V127.462H121.769V130.318C121.769 130.589 121.726 130.84 121.64 131.073C121.553 131.304 121.429 131.505 121.269 131.674C121.108 131.843 120.912 131.977 120.68 132.073C120.449 132.169 120.189 132.217 119.9 132.217C119.612 132.217 119.351 132.169 119.12 132.073C118.887 131.977 118.691 131.843 118.529 131.674C118.367 131.505 118.243 131.304 118.157 131.073C118.071 130.84 118.027 130.589 118.027 130.318V127.462H118.66V130.315C118.66 130.511 118.688 130.692 118.744 130.856C118.8 131.019 118.88 131.161 118.987 131.279C119.093 131.397 119.223 131.49 119.377 131.556C119.531 131.623 119.705 131.656 119.9 131.656Z" fill="#976A4C"/>
<path d="M126.848 129.737C127.031 129.737 127.193 129.715 127.335 129.67C127.476 129.625 127.594 129.561 127.689 129.48C127.784 129.397 127.856 129.3 127.904 129.186C127.952 129.072 127.975 128.947 127.975 128.809C127.975 128.529 127.884 128.318 127.7 128.176C127.517 128.034 127.241 127.963 126.874 127.963H126.178V129.737H126.848ZM129.018 132.161H128.454C128.339 132.161 128.254 132.115 128.198 132.026L126.979 130.347C126.942 130.295 126.902 130.257 126.859 130.234C126.816 130.211 126.75 130.199 126.661 130.199H126.178V132.161H125.546V127.462H126.874C127.171 127.462 127.428 127.492 127.644 127.551C127.861 127.611 128.04 127.699 128.18 127.812C128.322 127.926 128.426 128.063 128.494 128.224C128.562 128.384 128.595 128.564 128.595 128.763C128.595 128.93 128.569 129.085 128.517 129.229C128.464 129.373 128.388 129.503 128.289 129.617C128.19 129.732 128.068 129.83 127.924 129.911C127.782 129.991 127.619 130.053 127.438 130.095C127.519 130.14 127.589 130.207 127.648 130.295L129.018 132.161Z" fill="#976A4C"/>
<path d="M135.166 131.642L135.162 132.161H132.267V127.462H135.162V127.98H132.902V129.541H134.733V130.039H132.902V131.642H135.166Z" fill="#976A4C"/>
<path d="M19.8275 84.8643H24.3165V118.024H19.8275V84.8643Z" fill="#976A4C"/>
<path d="M64.3585 101.458C64.3585 99.422 64.0803 97.5933 63.5255 95.9739C62.9699 94.3537 62.1828 92.9852 61.1648 91.8669C60.1469 90.7486 58.9124 89.8884 57.4629 89.2862C56.0127 88.6848 54.3926 88.3844 52.6033 88.3844C50.829 88.3844 49.2168 88.6848 47.7673 89.2862C46.3171 89.8884 45.0791 90.7486 44.0532 91.8669C43.0274 92.9852 42.2374 94.3537 41.6818 95.9739C41.1262 97.5933 40.8488 99.422 40.8488 101.458C40.8488 103.494 41.1262 105.319 41.6818 106.93C42.2374 108.543 43.0274 109.908 44.0532 111.026C45.0791 112.145 46.3171 113.001 47.7673 113.594C49.2168 114.189 50.829 114.485 52.6033 114.485C54.3926 114.485 56.0127 114.189 57.4629 113.594C58.9124 113.001 60.1469 112.145 61.1648 111.026C62.1828 109.908 62.9699 108.543 63.5255 106.93C64.0803 105.319 64.3585 103.494 64.3585 101.458ZM68.9629 101.458C68.9629 103.942 68.5701 106.221 67.783 108.295C66.9966 110.371 65.8854 112.156 64.451 113.653C63.0158 115.149 61.2924 116.31 59.2795 117.135C57.2658 117.961 55.0406 118.373 52.6033 118.373C50.1659 118.373 47.9444 117.961 45.9393 117.135C43.9335 116.31 42.2137 115.149 40.7786 113.653C39.3441 112.156 38.2337 110.371 37.4466 108.295C36.6602 106.221 36.2666 103.942 36.2666 101.458C36.2666 98.9747 36.6602 96.695 37.4466 94.6197C38.2337 92.5458 39.3441 90.7558 40.7786 89.2518C42.2137 87.7478 43.9335 86.5793 45.9393 85.7463C47.9444 84.9133 50.1659 84.4968 52.6033 84.4968C55.0406 84.4968 57.2658 84.9133 59.2795 85.7463C61.2924 86.5793 63.0158 87.7478 64.451 89.2518C65.8854 90.7558 66.9966 92.5458 67.783 94.6197C68.5701 96.695 68.9629 98.9747 68.9629 101.458Z" fill="#976A4C"/>
<path d="M101.86 88.6417H91.1229V118.029H86.6568V88.6417H75.8973V84.8696H101.86V88.6417Z" fill="#976A4C"/>
<path d="M125.829 105.713L120.623 92.2223C120.468 91.8215 120.306 91.3549 120.137 90.8229C119.967 90.2903 119.805 89.7233 119.651 89.1218C119.327 90.3713 118.995 91.4129 118.656 92.2459L113.449 105.713H125.829ZM135.178 118.023H131.707C131.305 118.023 130.981 117.923 130.735 117.722C130.488 117.522 130.302 117.267 130.179 116.959L127.079 108.952H112.2L109.099 116.959C109.007 117.237 108.829 117.483 108.567 117.699C108.305 117.915 107.981 118.023 107.595 118.023H104.124L117.383 84.8643H121.919L135.178 118.023Z" fill="#976A4C"/>
<path d="M131.221 85.3619H130.24V88.1175H129.635V85.3619H128.654V84.8643H131.221V85.3619Z" fill="#976A4C"/>
<path d="M135.164 84.8643V88.1175H134.631V86.0164C134.631 85.9325 134.635 85.8414 134.644 85.7447L133.661 87.5913C133.614 87.6795 133.543 87.7239 133.447 87.7239H133.362C133.266 87.7239 133.194 87.6795 133.148 87.5913L132.154 85.7375C132.158 85.787 132.162 85.8357 132.165 85.8837C132.168 85.9318 132.17 85.9762 132.17 86.0164V88.1175H131.637V84.8643H132.093C132.12 84.8643 132.143 84.8651 132.163 84.8665C132.182 84.8679 132.2 84.8722 132.216 84.878C132.232 84.8837 132.246 84.8937 132.259 84.9074C132.271 84.921 132.283 84.9389 132.295 84.9611L133.27 86.7676C133.295 86.8157 133.319 86.8658 133.34 86.916C133.362 86.9676 133.383 87.02 133.404 87.0737C133.426 87.0185 133.447 86.9648 133.47 86.9124C133.492 86.8608 133.516 86.8114 133.542 86.7633L134.502 84.9611C134.515 84.9389 134.528 84.921 134.54 84.9074C134.554 84.8937 134.569 84.8837 134.584 84.878C134.6 84.8722 134.618 84.8679 134.637 84.8665C134.657 84.8651 134.68 84.8643 134.708 84.8643H135.164Z" fill="#976A4C"/>
</svg>